# xmcd CD database file
#
# Track frame offsets:
#	150
#	16556
#	42198
#	58550
#	82295
#	107022
#	125296
#	132427
#	151066
#
# Disc length: 2429 seconds
#
# Revision: 0
# Processed by: cddbd v1.5.2PL0 Copyright (c) Steve Scherf et al.
# Submitted via: CDex 1.81
#
DISCID=68097b09
DTITLE=Fred Dupont - Organ Session
DYEAR=2017
DGENRE=Jazz
TTITLE0=New Orleans
TTITLE1=BlueBlues
TTITLE2=Listen Here
TTITLE3=Mandat Cash
TTITLE4=Organ Session
TTITLE5=Rhum Express
TTITLE6=Cajun
TTITLE7=6 am
TTITLE8=Listen Here (Live)
EXTD=YEAR: 2017
EXTT0=
EXTT1=
EXTT2=
EXTT3=
EXTT4=
EXTT5=
EXTT6=
EXTT7=
EXTT8=
PLAYORDER=
